<svg width="425" height="765" viewBox="0 0 425 765" fill="none" xmlns="http://www.w3.org/2000/svg">
<path d="M11.997 576.5C11.9984 437.5 123.5 29.7 407.5 0.5C457.028 245.215 411.862 601.839 41.9982 662.833C-6.00181 693.9 25.8314 738.889 41.9981 765C22.6817 744.5 -19.5614 708.2 11.9967 667C125.664 521.611 305.5 328 236.5 276C236.5 362.08 108.332 516 11.997 576.5Z" fill="#D9D9D9"/>
<path d="M11.997 576.5C11.9984 437.5 123.5 29.7 407.5 0.5C457.028 245.215 411.862 601.839 41.9982 662.833C-6.00181 693.9 25.8314 738.889 41.9981 765C22.6817 744.5 -19.5614 708.2 11.9967 667C125.664 521.611 305.5 328 236.5 276C236.5 362.08 108.332 516 11.997 576.5Z" fill="#16A34A"/>
</svg>
